<svg xmlns="http://www.w3.org/2000/svg" version="1.1" xlink="http://www.w3.org/1999/xlink" xmlns:svgjs="http://svgjs.com/svgjs" width="100%" height="100%" viewBox="2.6500000953674316 -46.849998474121094 329.33001708984375 47.68000030517578"><g fill="#107fb6"><path d="M15.74 0L2.65 0L2.65 -46.34L7.87 -46.34C9.26 -46.34 11.37 -46.4 14.19 -46.51C17.01 -46.63 19.33 -46.69 21.15 -46.69C26.26 -46.69 30.14 -45.33 32.78 -42.62C35.41 -39.9 36.73 -35.83 36.73 -30.4C36.73 -27.13 36.3 -24.16 35.44 -21.49C34.59 -18.81 33.43 -16.62 31.98 -14.9C30.53 -13.19 28.89 -11.87 27.04 -10.95C25.2 -10.03 23.25 -9.57 21.19 -9.57L20.38 -9.57C20.1 -9.57 19.85 -9.57 19.63 -9.59C19.41 -9.6 19.14 -9.61 18.84 -9.63C18.54 -9.64 18.3 -9.65 18.13 -9.67C17.96 -9.68 17.72 -9.69 17.42 -9.71C17.11 -9.72 16.91 -9.73 16.8 -9.73C16.7 -9.73 16.5 -9.74 16.21 -9.77C15.92 -9.79 15.76 -9.8 15.74 -9.8ZM23.76 -32.14C23.76 -34.09 23.23 -35.67 22.18 -36.89C21.13 -38.1 19.61 -38.71 17.63 -38.71L15.74 -38.71L15.74 -18.15L17.2 -18.15C19.28 -18.15 20.89 -18.85 22.04 -20.24C23.19 -21.64 23.76 -23.66 23.76 -26.29Z M86.19 0L84.41 -7.39L73.18 -7.39L71.68 0L60.05 0L72.11 -43.13L71.16 -46.34L87.49 -46.34L100.7 0ZM78.28 -32.74L74.8 -15.46L82.47 -15.46Z M139.76 0.83C137.73 0.83 135.84 0.65 134.09 0.3C132.33 -0.06 130.86 -0.53 129.68 -1.11C128.49 -1.69 127.52 -2.24 126.77 -2.77C126.02 -3.29 125.39 -3.82 124.89 -4.35L125.88 -13.96C126.96 -12.51 128.41 -11.25 130.23 -10.18C132.05 -9.11 134.01 -8.58 136.12 -8.58C138.23 -8.58 139.75 -8.8 140.69 -9.25C141.62 -9.7 142.09 -10.52 142.09 -11.7C142.09 -12.97 141.56 -14.05 140.49 -14.94C139.42 -15.84 137.58 -16.92 134.98 -18.19C134.03 -18.66 133.22 -19.09 132.56 -19.47C131.9 -19.85 131.03 -20.49 129.93 -21.37C128.84 -22.25 127.95 -23.17 127.27 -24.14C126.58 -25.1 125.97 -26.34 125.45 -27.85C124.92 -29.37 124.66 -31 124.66 -32.74C124.66 -42.15 129.97 -46.85 140.59 -46.85C142.28 -46.85 143.86 -46.67 145.35 -46.32C146.84 -45.96 148.01 -45.57 148.85 -45.15C149.7 -44.73 150.47 -44.23 151.16 -43.67C151.86 -43.1 152.3 -42.71 152.49 -42.48C152.67 -42.26 152.81 -42.08 152.88 -41.95L150.91 -34.32C149.88 -35.53 148.6 -36.43 147.05 -37.03C145.51 -37.62 144.04 -37.91 142.64 -37.91C139.27 -37.91 137.58 -36.86 137.58 -34.75C137.58 -34.2 137.69 -33.7 137.9 -33.25C138.11 -32.8 138.45 -32.39 138.93 -32.02C139.4 -31.65 139.84 -31.34 140.25 -31.08C140.66 -30.81 141.23 -30.49 141.95 -30.11C142.68 -29.72 143.22 -29.41 143.59 -29.18C147.44 -27.54 150.27 -25.61 152.07 -23.37C153.88 -21.13 154.78 -18.4 154.78 -15.18C154.78 -9.96 153.5 -5.99 150.93 -3.26C148.36 -0.53 144.63 0.83 139.76 0.83Z M196.45 0.83C194.42 0.83 192.53 0.65 190.78 0.3C189.03 -0.06 187.56 -0.53 186.37 -1.11C185.19 -1.69 184.22 -2.24 183.47 -2.77C182.71 -3.29 182.09 -3.82 181.59 -4.35L182.58 -13.96C183.66 -12.51 185.11 -11.25 186.93 -10.18C188.74 -9.11 190.71 -8.58 192.82 -8.58C194.92 -8.58 196.45 -8.8 197.38 -9.25C198.32 -9.7 198.79 -10.52 198.79 -11.7C198.79 -12.97 198.25 -14.05 197.18 -14.94C196.12 -15.84 194.28 -16.92 191.67 -18.19C190.72 -18.66 189.92 -19.09 189.26 -19.47C188.6 -19.85 187.72 -20.49 186.63 -21.37C185.53 -22.25 184.65 -23.17 183.96 -24.14C183.27 -25.1 182.67 -26.34 182.14 -27.85C181.61 -29.37 181.35 -31 181.35 -32.74C181.35 -42.15 186.66 -46.85 197.28 -46.85C198.97 -46.85 200.56 -46.67 202.05 -46.32C203.54 -45.96 204.7 -45.57 205.55 -45.15C206.39 -44.73 207.16 -44.23 207.86 -43.67C208.56 -43.1 209 -42.71 209.18 -42.48C209.37 -42.26 209.5 -42.08 209.58 -41.95L207.6 -34.32C206.57 -35.53 205.29 -36.43 203.75 -37.03C202.21 -37.62 200.74 -37.91 199.34 -37.91C195.97 -37.91 194.28 -36.86 194.28 -34.75C194.28 -34.2 194.38 -33.7 194.59 -33.25C194.81 -32.8 195.15 -32.39 195.62 -32.02C196.1 -31.65 196.54 -31.34 196.95 -31.08C197.36 -30.81 197.92 -30.49 198.65 -30.11C199.37 -29.72 199.92 -29.41 200.29 -29.18C204.14 -27.54 206.96 -25.61 208.77 -23.37C210.57 -21.13 211.48 -18.4 211.48 -15.18C211.48 -9.96 210.19 -5.99 207.62 -3.26C205.05 -0.53 201.33 0.83 196.45 0.83Z M239.47 0L239.47 -46.34L252.95 -46.34L252.95 0Z M292.09 0L280.19 0L283.87 -46.34L302.41 -46.34L305.89 -30.8L307.47 -22.93L308.97 -30.76L312.06 -46.34L328.58 -46.34L331.98 0L319.69 0L317.67 -27.24L317.2 -37.28L311.15 -4.63L300.83 -4.63L293.55 -37.28L293.32 -27.24Z"></path></g></svg>